<?xml version="1.0" encoding="iso-8859-1"?>
<!-- Generator: Adobe Illustrator 15.0.0, SVG Export Plug-In . SVG Version: 6.00 Build 0)  -->
<!DOCTYPE svg PUBLIC "-//W3C//DTD SVG 1.1//EN" "http://www.w3.org/Graphics/SVG/1.1/DTD/svg11.dtd">
<svg version="1.1" id="Layer_1" xmlns="http://www.w3.org/2000/svg" xmlns:xlink="http://www.w3.org/1999/xlink" x="0px" y="0px"
	 width="136.06px" height="56.69px" viewBox="0 0 136.06 56.69" style="enable-background:new 0 0 136.06 56.69;"
	 xml:space="preserve">
<path style="fill:#1D5697;" d="M128.992,44.061c-2.484-4.008-4.459-6.797-5.924-8.367s-3.322-3.012-5.572-4.324
	c4.523-0.656,7.922-2.244,10.195-4.764c2.273-2.519,3.41-5.713,3.41-9.58c0-3.046-0.75-5.753-2.25-8.121
	c-1.5-2.367-3.498-4.013-5.994-4.939c-2.496-0.926-6.498-1.389-12.006-1.389H34.946L25.7,37.732L16.348,2.576H0.774v51.54h9.668
	V11.293l10.195,42.822h10.02l10.23-42.822v42.822h58.468V32.6h2.109c2.391,0,4.137,0.193,5.238,0.58s2.145,1.102,3.129,2.145
	s2.812,3.568,5.484,7.576l7.523,11.215h12.445L128.992,44.061z M88.65,46.312L69.885,28.302L51.118,46.312V11.293l18.767,17.009
	L88.65,11.293V46.312z M107.055,24.373h-7.699V11.294h8.121c4.219,0,6.75,0.059,7.594,0.176c1.688,0.281,2.994,0.955,3.92,2.021
	c0.926,1.067,1.389,2.467,1.389,4.201c0,1.547-0.352,2.836-1.055,3.867c-0.703,1.032-1.676,1.758-2.918,2.18
	S112.047,24.373,107.055,24.373z"/>
</svg>
